<?xml version="1.0" encoding="UTF-8" standalone="no"?>
<!DOCTYPE svg PUBLIC "-//W3C//DTD SVG 20010904//EN"
              "http://www.w3.org/TR/2001/REC-SVG-20010904/DTD/svg10.dtd">

<svg xmlns="http://www.w3.org/2000/svg"
     width="1.42222in" height="1.42222in"
     viewBox="0 0 128 128">
  <path id="Выделение #4"
        fill="none" stroke="black" stroke-width="1"
        d="M 65.00,1.00
           C 65.00,1.00 66.00,2.00 66.00,2.00
             66.00,2.00 67.00,3.00 67.00,3.00
             67.00,3.00 68.00,4.00 68.00,4.00
             68.00,4.00 69.00,5.00 69.00,5.00
             69.00,5.00 70.00,6.00 70.00,6.00
             70.00,6.00 71.00,7.00 71.00,7.00
             71.00,7.00 72.00,8.00 72.00,8.00
             72.00,8.00 73.00,9.00 73.00,9.00
             73.00,9.00 74.00,10.00 74.00,10.00
             74.00,10.00 75.00,11.00 75.00,11.00
             75.00,11.00 76.00,12.00 76.00,12.00
             76.00,12.00 77.00,13.00 77.00,13.00
             77.00,13.00 78.00,14.00 78.00,14.00
             78.00,14.00 79.00,15.00 79.00,15.00
             79.00,15.00 80.00,16.00 80.00,16.00
             80.00,16.00 81.00,17.00 81.00,17.00
             81.00,17.00 82.00,18.00 82.00,18.00
             82.00,18.00 83.00,19.00 83.00,19.00
             83.00,19.00 84.00,20.00 84.00,20.00
             84.00,20.00 85.00,21.00 85.00,21.00
             85.00,21.00 86.00,22.00 86.00,22.00
             86.00,22.00 87.00,23.00 87.00,23.00
             87.00,23.00 88.00,24.00 88.00,24.00
             88.00,24.00 89.00,25.00 89.00,25.00
             89.00,25.00 90.00,26.00 90.00,26.00
             90.00,26.00 91.00,27.00 91.00,27.00
             91.00,27.00 92.00,28.00 92.00,28.00
             92.00,28.00 92.00,26.00 92.00,26.00
             92.00,26.00 92.00,24.00 92.00,24.00
             92.00,24.00 92.00,22.00 92.00,22.00
             92.00,22.00 92.00,20.00 92.00,20.00
             92.00,20.00 92.00,18.00 92.00,18.00
             92.00,18.00 92.00,16.00 92.00,16.00
             92.00,16.00 92.00,14.00 92.00,14.00
             92.00,14.00 92.00,12.00 92.00,12.00
             92.00,12.00 94.00,12.00 94.00,12.00
             94.00,12.00 96.00,12.00 96.00,12.00
             96.00,12.00 98.00,12.00 98.00,12.00
             98.00,12.00 100.00,12.00 100.00,12.00
             100.00,12.00 102.00,12.00 102.00,12.00
             102.00,12.00 104.00,12.00 104.00,12.00
             104.00,12.00 106.00,12.00 106.00,12.00
             106.00,12.00 108.00,12.00 108.00,12.00
             108.00,12.00 110.00,12.00 110.00,12.00
             110.00,12.00 111.00,13.00 111.00,13.00
             111.00,13.00 111.00,15.00 111.00,15.00
             111.00,15.00 111.00,17.00 111.00,17.00
             111.00,17.00 111.00,19.00 111.00,19.00
             111.00,19.00 111.00,21.00 111.00,21.00
             111.00,21.00 111.00,23.00 111.00,23.00
             111.00,23.00 111.00,25.00 111.00,25.00
             111.00,25.00 111.00,27.00 111.00,27.00
             111.00,27.00 111.00,29.00 111.00,29.00
             111.00,29.00 111.00,31.00 111.00,31.00
             111.00,31.00 111.00,33.00 111.00,33.00
             111.00,33.00 111.00,35.00 111.00,35.00
             111.00,35.00 111.00,37.00 111.00,37.00
             111.00,37.00 111.00,39.00 111.00,39.00
             111.00,39.00 111.00,41.00 111.00,41.00
             111.00,41.00 111.00,43.00 111.00,43.00
             111.00,43.00 111.00,45.00 111.00,45.00
             111.00,45.00 111.00,47.00 111.00,47.00
             111.00,47.00 112.00,48.00 112.00,48.00
             112.00,48.00 113.00,49.00 113.00,49.00
             113.00,49.00 114.00,50.00 114.00,50.00
             114.00,50.00 115.00,51.00 115.00,51.00
             115.00,51.00 116.00,52.00 116.00,52.00
             116.00,52.00 117.00,53.00 117.00,53.00
             117.00,53.00 118.00,54.00 118.00,54.00
             118.00,54.00 119.00,55.00 119.00,55.00
             119.00,55.00 120.00,56.00 120.00,56.00
             120.00,56.00 121.00,57.00 121.00,57.00
             121.00,57.00 122.00,58.00 122.00,58.00
             122.00,58.00 123.00,59.00 123.00,59.00
             123.00,59.00 124.00,60.00 124.00,60.00
             124.00,60.00 125.00,61.00 125.00,61.00
             125.00,61.00 126.00,62.00 126.00,62.00
             126.00,62.00 127.00,63.00 127.00,63.00
             127.00,63.00 127.00,65.00 127.00,65.00
             127.00,65.00 126.00,66.00 126.00,66.00
             126.00,66.00 125.00,67.00 125.00,67.00
             125.00,67.00 124.00,68.00 124.00,68.00
             124.00,68.00 123.00,69.00 123.00,69.00
             123.00,69.00 122.00,70.00 122.00,70.00
             122.00,70.00 121.00,71.00 121.00,71.00
             121.00,71.00 120.00,72.00 120.00,72.00
             120.00,72.00 118.00,72.00 118.00,72.00
             118.00,72.00 117.00,71.00 117.00,71.00
             117.00,71.00 116.00,70.00 116.00,70.00
             116.00,70.00 115.00,69.00 115.00,69.00
             115.00,69.00 114.00,68.00 114.00,68.00
             114.00,68.00 113.00,67.00 113.00,67.00
             113.00,67.00 112.00,66.00 112.00,66.00
             112.00,66.00 111.00,65.00 111.00,65.00
             111.00,65.00 111.00,67.00 111.00,67.00
             111.00,67.00 111.00,69.00 111.00,69.00
             111.00,69.00 111.00,71.00 111.00,71.00
             111.00,71.00 111.00,73.00 111.00,73.00
             111.00,73.00 111.00,75.00 111.00,75.00
             111.00,75.00 111.00,77.00 111.00,77.00
             111.00,77.00 111.00,79.00 111.00,79.00
             111.00,79.00 111.00,81.00 111.00,81.00
             111.00,81.00 111.00,83.00 111.00,83.00
             111.00,83.00 111.00,85.00 111.00,85.00
             111.00,85.00 111.00,87.00 111.00,87.00
             111.00,87.00 111.00,89.00 111.00,89.00
             111.00,89.00 111.00,91.00 111.00,91.00
             111.00,91.00 111.00,93.00 111.00,93.00
             111.00,93.00 111.00,95.00 111.00,95.00
             111.00,95.00 111.00,97.00 111.00,97.00
             111.00,97.00 111.00,99.00 111.00,99.00
             111.00,99.00 111.00,101.00 111.00,101.00
             111.00,101.00 111.00,103.00 111.00,103.00
             111.00,103.00 111.00,105.00 111.00,105.00
             111.00,105.00 111.00,107.00 111.00,107.00
             111.00,107.00 111.00,109.00 111.00,109.00
             111.00,109.00 111.00,111.00 111.00,111.00
             111.00,111.00 111.00,113.00 111.00,113.00
             111.00,113.00 111.00,115.00 111.00,115.00
             111.00,115.00 111.00,117.00 111.00,117.00
             111.00,117.00 111.00,119.00 111.00,119.00
             111.00,119.00 111.00,121.00 111.00,121.00
             111.00,121.00 111.00,123.00 111.00,123.00
             111.00,123.00 111.00,125.00 111.00,125.00
             111.00,125.00 110.00,126.00 110.00,126.00
             110.00,126.00 108.00,126.00 108.00,126.00
             108.00,126.00 106.00,126.00 106.00,126.00
             106.00,126.00 104.00,126.00 104.00,126.00
             104.00,126.00 102.00,126.00 102.00,126.00
             102.00,126.00 100.00,126.00 100.00,126.00
             100.00,126.00 98.00,126.00 98.00,126.00
             98.00,126.00 96.00,126.00 96.00,126.00
             96.00,126.00 94.00,126.00 94.00,126.00
             94.00,126.00 92.00,126.00 92.00,126.00
             92.00,126.00 90.00,126.00 90.00,126.00
             90.00,126.00 88.00,126.00 88.00,126.00
             88.00,126.00 86.00,126.00 86.00,126.00
             86.00,126.00 84.00,126.00 84.00,126.00
             84.00,126.00 82.00,126.00 82.00,126.00
             82.00,126.00 80.00,126.00 80.00,126.00
             80.00,126.00 78.00,126.00 78.00,126.00
             78.00,126.00 76.00,126.00 76.00,126.00
             76.00,126.00 74.00,126.00 74.00,126.00
             74.00,126.00 72.00,126.00 72.00,126.00
             72.00,126.00 70.00,126.00 70.00,126.00
             70.00,126.00 68.00,126.00 68.00,126.00
             68.00,126.00 66.00,126.00 66.00,126.00
             66.00,126.00 64.00,126.00 64.00,126.00
             64.00,126.00 62.00,126.00 62.00,126.00
             62.00,126.00 60.00,126.00 60.00,126.00
             60.00,126.00 58.00,126.00 58.00,126.00
             58.00,126.00 56.00,126.00 56.00,126.00
             56.00,126.00 54.00,126.00 54.00,126.00
             54.00,126.00 52.00,126.00 52.00,126.00
             52.00,126.00 50.00,126.00 50.00,126.00
             50.00,126.00 48.00,126.00 48.00,126.00
             48.00,126.00 46.00,126.00 46.00,126.00
             46.00,126.00 44.00,126.00 44.00,126.00
             44.00,126.00 42.00,126.00 42.00,126.00
             42.00,126.00 40.00,126.00 40.00,126.00
             40.00,126.00 38.00,126.00 38.00,126.00
             38.00,126.00 36.00,126.00 36.00,126.00
             36.00,126.00 34.00,126.00 34.00,126.00
             34.00,126.00 32.00,126.00 32.00,126.00
             32.00,126.00 30.00,126.00 30.00,126.00
             30.00,126.00 28.00,126.00 28.00,126.00
             28.00,126.00 26.00,126.00 26.00,126.00
             26.00,126.00 24.00,126.00 24.00,126.00
             24.00,126.00 22.00,126.00 22.00,126.00
             22.00,126.00 20.00,126.00 20.00,126.00
             20.00,126.00 18.00,126.00 18.00,126.00
             18.00,126.00 17.00,125.00 17.00,125.00
             17.00,125.00 17.00,123.00 17.00,123.00
             17.00,123.00 17.00,121.00 17.00,121.00
             17.00,121.00 17.00,119.00 17.00,119.00
             17.00,119.00 17.00,117.00 17.00,117.00
             17.00,117.00 17.00,115.00 17.00,115.00
             17.00,115.00 17.00,113.00 17.00,113.00
             17.00,113.00 17.00,111.00 17.00,111.00
             17.00,111.00 17.00,109.00 17.00,109.00
             17.00,109.00 17.00,107.00 17.00,107.00
             17.00,107.00 17.00,105.00 17.00,105.00
             17.00,105.00 17.00,103.00 17.00,103.00
             17.00,103.00 17.00,101.00 17.00,101.00
             17.00,101.00 17.00,99.00 17.00,99.00
             17.00,99.00 17.00,97.00 17.00,97.00
             17.00,97.00 17.00,95.00 17.00,95.00
             17.00,95.00 17.00,93.00 17.00,93.00
             17.00,93.00 17.00,91.00 17.00,91.00
             17.00,91.00 17.00,89.00 17.00,89.00
             17.00,89.00 17.00,87.00 17.00,87.00
             17.00,87.00 17.00,85.00 17.00,85.00
             17.00,85.00 17.00,83.00 17.00,83.00
             17.00,83.00 17.00,81.00 17.00,81.00
             17.00,81.00 17.00,79.00 17.00,79.00
             17.00,79.00 17.00,77.00 17.00,77.00
             17.00,77.00 17.00,75.00 17.00,75.00
             17.00,75.00 17.00,73.00 17.00,73.00
             17.00,73.00 17.00,71.00 17.00,71.00
             17.00,71.00 17.00,69.00 17.00,69.00
             17.00,69.00 17.00,67.00 17.00,67.00
             17.00,67.00 17.00,65.00 17.00,65.00
             17.00,65.00 16.00,66.00 16.00,66.00
             16.00,66.00 15.00,67.00 15.00,67.00
             15.00,67.00 14.00,68.00 14.00,68.00
             14.00,68.00 13.00,69.00 13.00,69.00
             13.00,69.00 12.00,70.00 12.00,70.00
             12.00,70.00 11.00,71.00 11.00,71.00
             11.00,71.00 10.00,72.00 10.00,72.00
             10.00,72.00 8.00,72.00 8.00,72.00
             8.00,72.00 7.00,71.00 7.00,71.00
             7.00,71.00 6.00,70.00 6.00,70.00
             6.00,70.00 5.00,69.00 5.00,69.00
             5.00,69.00 4.00,68.00 4.00,68.00
             4.00,68.00 3.00,67.00 3.00,67.00
             3.00,67.00 2.00,66.00 2.00,66.00
             2.00,66.00 1.00,65.00 1.00,65.00
             1.00,65.00 1.00,63.00 1.00,63.00
             1.00,63.00 2.00,62.00 2.00,62.00
             2.00,62.00 3.00,61.00 3.00,61.00
             3.00,61.00 4.00,60.00 4.00,60.00
             4.00,60.00 5.00,59.00 5.00,59.00
             5.00,59.00 6.00,58.00 6.00,58.00
             6.00,58.00 7.00,57.00 7.00,57.00
             7.00,57.00 8.00,56.00 8.00,56.00
             8.00,56.00 9.00,55.00 9.00,55.00
             9.00,55.00 10.00,54.00 10.00,54.00
             10.00,54.00 11.00,53.00 11.00,53.00
             11.00,53.00 12.00,52.00 12.00,52.00
             12.00,52.00 13.00,51.00 13.00,51.00
             13.00,51.00 14.00,50.00 14.00,50.00
             14.00,50.00 15.00,49.00 15.00,49.00
             15.00,49.00 16.00,48.00 16.00,48.00
             16.00,48.00 17.00,47.00 17.00,47.00
             17.00,47.00 18.00,46.00 18.00,46.00
             18.00,46.00 19.00,45.00 19.00,45.00
             19.00,45.00 20.00,44.00 20.00,44.00
             20.00,44.00 21.00,43.00 21.00,43.00
             21.00,43.00 22.00,42.00 22.00,42.00
             22.00,42.00 23.00,41.00 23.00,41.00
             23.00,41.00 24.00,40.00 24.00,40.00
             24.00,40.00 25.00,39.00 25.00,39.00
             25.00,39.00 26.00,38.00 26.00,38.00
             26.00,38.00 27.00,37.00 27.00,37.00
             27.00,37.00 28.00,36.00 28.00,36.00
             28.00,36.00 29.00,35.00 29.00,35.00
             29.00,35.00 30.00,34.00 30.00,34.00
             30.00,34.00 31.00,33.00 31.00,33.00
             31.00,33.00 32.00,32.00 32.00,32.00
             32.00,32.00 33.00,31.00 33.00,31.00
             33.00,31.00 34.00,30.00 34.00,30.00
             34.00,30.00 35.00,29.00 35.00,29.00
             35.00,29.00 36.00,28.00 36.00,28.00
             36.00,28.00 37.00,27.00 37.00,27.00
             37.00,27.00 38.00,26.00 38.00,26.00
             38.00,26.00 39.00,25.00 39.00,25.00
             39.00,25.00 40.00,24.00 40.00,24.00
             40.00,24.00 41.00,23.00 41.00,23.00
             41.00,23.00 42.00,22.00 42.00,22.00
             42.00,22.00 43.00,21.00 43.00,21.00
             43.00,21.00 44.00,20.00 44.00,20.00
             44.00,20.00 45.00,19.00 45.00,19.00
             45.00,19.00 46.00,18.00 46.00,18.00
             46.00,18.00 47.00,17.00 47.00,17.00
             47.00,17.00 48.00,16.00 48.00,16.00
             48.00,16.00 49.00,15.00 49.00,15.00
             49.00,15.00 50.00,14.00 50.00,14.00
             50.00,14.00 51.00,13.00 51.00,13.00
             51.00,13.00 52.00,12.00 52.00,12.00
             52.00,12.00 53.00,11.00 53.00,11.00
             53.00,11.00 54.00,10.00 54.00,10.00
             54.00,10.00 55.00,9.00 55.00,9.00
             55.00,9.00 56.00,8.00 56.00,8.00
             56.00,8.00 57.00,7.00 57.00,7.00
             57.00,7.00 58.00,6.00 58.00,6.00
             58.00,6.00 59.00,5.00 59.00,5.00
             59.00,5.00 60.00,4.00 60.00,4.00
             60.00,4.00 61.00,3.00 61.00,3.00
             61.00,3.00 62.00,2.00 62.00,2.00
             62.00,2.00 63.00,1.00 63.00,1.00
             63.00,1.00 65.00,1.00 65.00,1.00 Z
           M 63.00,9.00
           C 63.00,9.00 62.00,10.00 62.00,10.00
             62.00,10.00 61.00,11.00 61.00,11.00
             61.00,11.00 60.00,12.00 60.00,12.00
             60.00,12.00 59.00,13.00 59.00,13.00
             59.00,13.00 58.00,14.00 58.00,14.00
             58.00,14.00 57.00,15.00 57.00,15.00
             57.00,15.00 56.00,16.00 56.00,16.00
             56.00,16.00 55.00,17.00 55.00,17.00
             55.00,17.00 54.00,18.00 54.00,18.00
             54.00,18.00 53.00,19.00 53.00,19.00
             53.00,19.00 52.00,20.00 52.00,20.00
             52.00,20.00 51.00,21.00 51.00,21.00
             51.00,21.00 50.00,22.00 50.00,22.00
             50.00,22.00 49.00,23.00 49.00,23.00
             49.00,23.00 48.00,24.00 48.00,24.00
             48.00,24.00 47.00,25.00 47.00,25.00
             47.00,25.00 46.00,26.00 46.00,26.00
             46.00,26.00 45.00,27.00 45.00,27.00
             45.00,27.00 44.00,28.00 44.00,28.00
             44.00,28.00 43.00,29.00 43.00,29.00
             43.00,29.00 42.00,30.00 42.00,30.00
             42.00,30.00 41.00,31.00 41.00,31.00
             41.00,31.00 40.00,32.00 40.00,32.00
             40.00,32.00 39.00,33.00 39.00,33.00
             39.00,33.00 38.00,34.00 38.00,34.00
             38.00,34.00 37.00,35.00 37.00,35.00
             37.00,35.00 36.00,36.00 36.00,36.00
             36.00,36.00 35.00,37.00 35.00,37.00
             35.00,37.00 34.00,38.00 34.00,38.00
             34.00,38.00 33.00,39.00 33.00,39.00
             33.00,39.00 32.00,40.00 32.00,40.00
             32.00,40.00 31.00,41.00 31.00,41.00
             31.00,41.00 30.00,42.00 30.00,42.00
             30.00,42.00 29.00,43.00 29.00,43.00
             29.00,43.00 28.00,44.00 28.00,44.00
             28.00,44.00 27.00,45.00 27.00,45.00
             27.00,45.00 26.00,46.00 26.00,46.00
             26.00,46.00 25.00,47.00 25.00,47.00
             25.00,47.00 24.00,48.00 24.00,48.00
             24.00,48.00 23.00,49.00 23.00,49.00
             23.00,49.00 22.00,50.00 22.00,50.00
             22.00,50.00 21.00,51.00 21.00,51.00
             21.00,51.00 20.00,52.00 20.00,52.00
             20.00,52.00 19.00,53.00 19.00,53.00
             19.00,53.00 18.00,54.00 18.00,54.00
             18.00,54.00 17.00,55.00 17.00,55.00
             17.00,55.00 16.00,56.00 16.00,56.00
             16.00,56.00 15.00,57.00 15.00,57.00
             15.00,57.00 14.00,58.00 14.00,58.00
             14.00,58.00 13.00,59.00 13.00,59.00
             13.00,59.00 12.00,60.00 12.00,60.00
             12.00,60.00 11.00,61.00 11.00,61.00
             11.00,61.00 10.00,62.00 10.00,62.00
             10.00,62.00 9.00,63.00 9.00,63.00
             9.00,63.00 8.00,64.00 8.00,64.00
             8.00,64.00 9.00,65.00 9.00,65.00
             9.00,65.00 10.00,64.00 10.00,64.00
             10.00,64.00 11.00,63.00 11.00,63.00
             11.00,63.00 12.00,62.00 12.00,62.00
             12.00,62.00 13.00,61.00 13.00,61.00
             13.00,61.00 14.00,60.00 14.00,60.00
             14.00,60.00 15.00,59.00 15.00,59.00
             15.00,59.00 16.00,58.00 16.00,58.00
             16.00,58.00 17.00,57.00 17.00,57.00
             17.00,57.00 18.00,56.00 18.00,56.00
             18.00,56.00 19.00,55.00 19.00,55.00
             19.00,55.00 20.00,54.00 20.00,54.00
             20.00,54.00 21.00,53.00 21.00,53.00
             21.00,53.00 22.00,52.00 22.00,52.00
             22.00,52.00 23.00,51.00 23.00,51.00
             23.00,51.00 24.00,50.00 24.00,50.00
             24.00,50.00 25.00,49.00 25.00,49.00
             25.00,49.00 26.00,48.00 26.00,48.00
             26.00,48.00 27.00,47.00 27.00,47.00
             27.00,47.00 28.00,46.00 28.00,46.00
             28.00,46.00 29.00,45.00 29.00,45.00
             29.00,45.00 30.00,44.00 30.00,44.00
             30.00,44.00 31.00,43.00 31.00,43.00
             31.00,43.00 32.00,42.00 32.00,42.00
             32.00,42.00 33.00,41.00 33.00,41.00
             33.00,41.00 34.00,40.00 34.00,40.00
             34.00,40.00 35.00,39.00 35.00,39.00
             35.00,39.00 36.00,38.00 36.00,38.00
             36.00,38.00 37.00,37.00 37.00,37.00
             37.00,37.00 38.00,36.00 38.00,36.00
             38.00,36.00 39.00,35.00 39.00,35.00
             39.00,35.00 40.00,34.00 40.00,34.00
             40.00,34.00 41.00,33.00 41.00,33.00
             41.00,33.00 42.00,32.00 42.00,32.00
             42.00,32.00 43.00,31.00 43.00,31.00
             43.00,31.00 44.00,30.00 44.00,30.00
             44.00,30.00 45.00,29.00 45.00,29.00
             45.00,29.00 46.00,28.00 46.00,28.00
             46.00,28.00 47.00,27.00 47.00,27.00
             47.00,27.00 48.00,26.00 48.00,26.00
             48.00,26.00 49.00,25.00 49.00,25.00
             49.00,25.00 50.00,24.00 50.00,24.00
             50.00,24.00 51.00,23.00 51.00,23.00
             51.00,23.00 52.00,22.00 52.00,22.00
             52.00,22.00 53.00,21.00 53.00,21.00
             53.00,21.00 54.00,20.00 54.00,20.00
             54.00,20.00 55.00,19.00 55.00,19.00
             55.00,19.00 56.00,18.00 56.00,18.00
             56.00,18.00 57.00,17.00 57.00,17.00
             57.00,17.00 58.00,16.00 58.00,16.00
             58.00,16.00 59.00,15.00 59.00,15.00
             59.00,15.00 60.00,14.00 60.00,14.00
             60.00,14.00 61.00,13.00 61.00,13.00
             61.00,13.00 62.00,12.00 62.00,12.00
             62.00,12.00 63.00,11.00 63.00,11.00
             63.00,11.00 65.00,11.00 65.00,11.00
             65.00,11.00 66.00,12.00 66.00,12.00
             66.00,12.00 67.00,13.00 67.00,13.00
             67.00,13.00 68.00,14.00 68.00,14.00
             68.00,14.00 69.00,15.00 69.00,15.00
             69.00,15.00 70.00,16.00 70.00,16.00
             70.00,16.00 71.00,17.00 71.00,17.00
             71.00,17.00 72.00,18.00 72.00,18.00
             72.00,18.00 73.00,19.00 73.00,19.00
             73.00,19.00 74.00,20.00 74.00,20.00
             74.00,20.00 75.00,21.00 75.00,21.00
             75.00,21.00 76.00,22.00 76.00,22.00
             76.00,22.00 77.00,23.00 77.00,23.00
             77.00,23.00 78.00,24.00 78.00,24.00
             78.00,24.00 79.00,25.00 79.00,25.00
             79.00,25.00 80.00,26.00 80.00,26.00
             80.00,26.00 81.00,27.00 81.00,27.00
             81.00,27.00 82.00,28.00 82.00,28.00
             82.00,28.00 83.00,29.00 83.00,29.00
             83.00,29.00 84.00,30.00 84.00,30.00
             84.00,30.00 85.00,31.00 85.00,31.00
             85.00,31.00 86.00,32.00 86.00,32.00
             86.00,32.00 87.00,33.00 87.00,33.00
             87.00,33.00 88.00,34.00 88.00,34.00
             88.00,34.00 89.00,35.00 89.00,35.00
             89.00,35.00 90.00,36.00 90.00,36.00
             90.00,36.00 91.00,37.00 91.00,37.00
             91.00,37.00 92.00,38.00 92.00,38.00
             92.00,38.00 93.00,39.00 93.00,39.00
             93.00,39.00 94.00,40.00 94.00,40.00
             94.00,40.00 95.00,41.00 95.00,41.00
             95.00,41.00 96.00,42.00 96.00,42.00
             96.00,42.00 97.00,43.00 97.00,43.00
             97.00,43.00 98.00,44.00 98.00,44.00
             98.00,44.00 99.00,45.00 99.00,45.00
             99.00,45.00 100.00,46.00 100.00,46.00
             100.00,46.00 101.00,47.00 101.00,47.00
             101.00,47.00 102.00,48.00 102.00,48.00
             102.00,48.00 103.00,49.00 103.00,49.00
             103.00,49.00 104.00,50.00 104.00,50.00
             104.00,50.00 105.00,51.00 105.00,51.00
             105.00,51.00 106.00,52.00 106.00,52.00
             106.00,52.00 107.00,53.00 107.00,53.00
             107.00,53.00 108.00,54.00 108.00,54.00
             108.00,54.00 109.00,55.00 109.00,55.00
             109.00,55.00 110.00,56.00 110.00,56.00
             110.00,56.00 111.00,57.00 111.00,57.00
             111.00,57.00 112.00,58.00 112.00,58.00
             112.00,58.00 113.00,59.00 113.00,59.00
             113.00,59.00 114.00,60.00 114.00,60.00
             114.00,60.00 115.00,61.00 115.00,61.00
             115.00,61.00 116.00,62.00 116.00,62.00
             116.00,62.00 117.00,63.00 117.00,63.00
             117.00,63.00 118.00,64.00 118.00,64.00
             118.00,64.00 119.00,65.00 119.00,65.00
             119.00,65.00 120.00,64.00 120.00,64.00
             120.00,64.00 119.00,63.00 119.00,63.00
             119.00,63.00 118.00,62.00 118.00,62.00
             118.00,62.00 117.00,61.00 117.00,61.00
             117.00,61.00 116.00,60.00 116.00,60.00
             116.00,60.00 115.00,59.00 115.00,59.00
             115.00,59.00 114.00,58.00 114.00,58.00
             114.00,58.00 113.00,57.00 113.00,57.00
             113.00,57.00 112.00,56.00 112.00,56.00
             112.00,56.00 111.00,55.00 111.00,55.00
             111.00,55.00 110.00,54.00 110.00,54.00
             110.00,54.00 109.00,53.00 109.00,53.00
             109.00,53.00 108.00,52.00 108.00,52.00
             108.00,52.00 107.00,51.00 107.00,51.00
             107.00,51.00 107.00,49.00 107.00,49.00
             107.00,49.00 107.00,47.00 107.00,47.00
             107.00,47.00 107.00,45.00 107.00,45.00
             107.00,45.00 107.00,43.00 107.00,43.00
             107.00,43.00 107.00,41.00 107.00,41.00
             107.00,41.00 107.00,39.00 107.00,39.00
             107.00,39.00 107.00,37.00 107.00,37.00
             107.00,37.00 107.00,35.00 107.00,35.00
             107.00,35.00 107.00,33.00 107.00,33.00
             107.00,33.00 107.00,31.00 107.00,31.00
             107.00,31.00 107.00,29.00 107.00,29.00
             107.00,29.00 107.00,27.00 107.00,27.00
             107.00,27.00 107.00,25.00 107.00,25.00
             107.00,25.00 107.00,23.00 107.00,23.00
             107.00,23.00 107.00,21.00 107.00,21.00
             107.00,21.00 107.00,19.00 107.00,19.00
             107.00,19.00 107.00,17.00 107.00,17.00
             107.00,17.00 106.00,16.00 106.00,16.00
             106.00,16.00 104.00,16.00 104.00,16.00
             104.00,16.00 102.00,16.00 102.00,16.00
             102.00,16.00 100.00,16.00 100.00,16.00
             100.00,16.00 98.00,16.00 98.00,16.00
             98.00,16.00 96.00,16.00 96.00,16.00
             96.00,16.00 96.00,18.00 96.00,18.00
             96.00,18.00 96.00,20.00 96.00,20.00
             96.00,20.00 96.00,22.00 96.00,22.00
             96.00,22.00 96.00,24.00 96.00,24.00
             96.00,24.00 96.00,26.00 96.00,26.00
             96.00,26.00 96.00,28.00 96.00,28.00
             96.00,28.00 96.00,30.00 96.00,30.00
             96.00,30.00 96.00,32.00 96.00,32.00
             96.00,32.00 96.00,34.00 96.00,34.00
             96.00,34.00 96.00,36.00 96.00,36.00
             96.00,36.00 96.00,38.00 96.00,38.00
             96.00,38.00 95.00,39.00 95.00,39.00
             95.00,39.00 94.00,38.00 94.00,38.00
             94.00,38.00 93.00,37.00 93.00,37.00
             93.00,37.00 92.00,36.00 92.00,36.00
             92.00,36.00 91.00,35.00 91.00,35.00
             91.00,35.00 90.00,34.00 90.00,34.00
             90.00,34.00 89.00,33.00 89.00,33.00
             89.00,33.00 88.00,32.00 88.00,32.00
             88.00,32.00 87.00,31.00 87.00,31.00
             87.00,31.00 86.00,30.00 86.00,30.00
             86.00,30.00 85.00,29.00 85.00,29.00
             85.00,29.00 84.00,28.00 84.00,28.00
             84.00,28.00 83.00,27.00 83.00,27.00
             83.00,27.00 82.00,26.00 82.00,26.00
             82.00,26.00 81.00,25.00 81.00,25.00
             81.00,25.00 80.00,24.00 80.00,24.00
             80.00,24.00 79.00,23.00 79.00,23.00
             79.00,23.00 78.00,22.00 78.00,22.00
             78.00,22.00 77.00,21.00 77.00,21.00
             77.00,21.00 76.00,20.00 76.00,20.00
             76.00,20.00 75.00,19.00 75.00,19.00
             75.00,19.00 74.00,18.00 74.00,18.00
             74.00,18.00 73.00,17.00 73.00,17.00
             73.00,17.00 72.00,16.00 72.00,16.00
             72.00,16.00 71.00,15.00 71.00,15.00
             71.00,15.00 70.00,14.00 70.00,14.00
             70.00,14.00 69.00,13.00 69.00,13.00
             69.00,13.00 68.00,12.00 68.00,12.00
             68.00,12.00 67.00,11.00 67.00,11.00
             67.00,11.00 66.00,10.00 66.00,10.00
             66.00,10.00 65.00,9.00 65.00,9.00
             65.00,9.00 64.00,8.00 64.00,8.00
             64.00,8.00 63.00,9.00 63.00,9.00 Z
           M 63.00,19.00
           C 63.00,19.00 62.00,20.00 62.00,20.00
             62.00,20.00 61.00,21.00 61.00,21.00
             61.00,21.00 60.00,22.00 60.00,22.00
             60.00,22.00 59.00,23.00 59.00,23.00
             59.00,23.00 58.00,24.00 58.00,24.00
             58.00,24.00 57.00,25.00 57.00,25.00
             57.00,25.00 56.00,26.00 56.00,26.00
             56.00,26.00 55.00,27.00 55.00,27.00
             55.00,27.00 54.00,28.00 54.00,28.00
             54.00,28.00 53.00,29.00 53.00,29.00
             53.00,29.00 52.00,30.00 52.00,30.00
             52.00,30.00 51.00,31.00 51.00,31.00
             51.00,31.00 50.00,32.00 50.00,32.00
             50.00,32.00 49.00,33.00 49.00,33.00
             49.00,33.00 48.00,34.00 48.00,34.00
             48.00,34.00 47.00,35.00 47.00,35.00
             47.00,35.00 46.00,36.00 46.00,36.00
             46.00,36.00 45.00,37.00 45.00,37.00
             45.00,37.00 44.00,38.00 44.00,38.00
             44.00,38.00 43.00,39.00 43.00,39.00
             43.00,39.00 42.00,40.00 42.00,40.00
             42.00,40.00 41.00,41.00 41.00,41.00
             41.00,41.00 40.00,42.00 40.00,42.00
             40.00,42.00 39.00,43.00 39.00,43.00
             39.00,43.00 38.00,44.00 38.00,44.00
             38.00,44.00 37.00,45.00 37.00,45.00
             37.00,45.00 36.00,46.00 36.00,46.00
             36.00,46.00 35.00,47.00 35.00,47.00
             35.00,47.00 34.00,48.00 34.00,48.00
             34.00,48.00 33.00,49.00 33.00,49.00
             33.00,49.00 32.00,50.00 32.00,50.00
             32.00,50.00 31.00,51.00 31.00,51.00
             31.00,51.00 30.00,52.00 30.00,52.00
             30.00,52.00 29.00,53.00 29.00,53.00
             29.00,53.00 28.00,54.00 28.00,54.00
             28.00,54.00 27.00,55.00 27.00,55.00
             27.00,55.00 26.00,56.00 26.00,56.00
             26.00,56.00 25.00,57.00 25.00,57.00
             25.00,57.00 24.00,58.00 24.00,58.00
             24.00,58.00 23.00,59.00 23.00,59.00
             23.00,59.00 22.00,60.00 22.00,60.00
             22.00,60.00 24.00,60.00 24.00,60.00
             24.00,60.00 26.00,60.00 26.00,60.00
             26.00,60.00 28.00,60.00 28.00,60.00
             28.00,60.00 30.00,60.00 30.00,60.00
             30.00,60.00 32.00,60.00 32.00,60.00
             32.00,60.00 34.00,60.00 34.00,60.00
             34.00,60.00 36.00,60.00 36.00,60.00
             36.00,60.00 38.00,60.00 38.00,60.00
             38.00,60.00 40.00,60.00 40.00,60.00
             40.00,60.00 42.00,60.00 42.00,60.00
             42.00,60.00 44.00,60.00 44.00,60.00
             44.00,60.00 46.00,60.00 46.00,60.00
             46.00,60.00 48.00,60.00 48.00,60.00
             48.00,60.00 50.00,60.00 50.00,60.00
             50.00,60.00 52.00,60.00 52.00,60.00
             52.00,60.00 54.00,60.00 54.00,60.00
             54.00,60.00 56.00,60.00 56.00,60.00
             56.00,60.00 58.00,60.00 58.00,60.00
             58.00,60.00 60.00,60.00 60.00,60.00
             60.00,60.00 62.00,60.00 62.00,60.00
             62.00,60.00 64.00,60.00 64.00,60.00
             64.00,60.00 66.00,60.00 66.00,60.00
             66.00,60.00 68.00,60.00 68.00,60.00
             68.00,60.00 70.00,60.00 70.00,60.00
             70.00,60.00 72.00,60.00 72.00,60.00
             72.00,60.00 74.00,60.00 74.00,60.00
             74.00,60.00 76.00,60.00 76.00,60.00
             76.00,60.00 78.00,60.00 78.00,60.00
             78.00,60.00 80.00,60.00 80.00,60.00
             80.00,60.00 82.00,60.00 82.00,60.00
             82.00,60.00 84.00,60.00 84.00,60.00
             84.00,60.00 86.00,60.00 86.00,60.00
             86.00,60.00 88.00,60.00 88.00,60.00
             88.00,60.00 90.00,60.00 90.00,60.00
             90.00,60.00 92.00,60.00 92.00,60.00
             92.00,60.00 94.00,60.00 94.00,60.00
             94.00,60.00 96.00,60.00 96.00,60.00
             96.00,60.00 98.00,60.00 98.00,60.00
             98.00,60.00 100.00,60.00 100.00,60.00
             100.00,60.00 102.00,60.00 102.00,60.00
             102.00,60.00 104.00,60.00 104.00,60.00
             104.00,60.00 106.00,60.00 106.00,60.00
             106.00,60.00 105.00,59.00 105.00,59.00
             105.00,59.00 104.00,58.00 104.00,58.00
             104.00,58.00 103.00,57.00 103.00,57.00
             103.00,57.00 102.00,56.00 102.00,56.00
             102.00,56.00 101.00,55.00 101.00,55.00
             101.00,55.00 100.00,54.00 100.00,54.00
             100.00,54.00 99.00,53.00 99.00,53.00
             99.00,53.00 98.00,52.00 98.00,52.00
             98.00,52.00 97.00,51.00 97.00,51.00
             97.00,51.00 96.00,50.00 96.00,50.00
             96.00,50.00 95.00,49.00 95.00,49.00
             95.00,49.00 94.00,48.00 94.00,48.00
             94.00,48.00 93.00,47.00 93.00,47.00
             93.00,47.00 92.00,46.00 92.00,46.00
             92.00,46.00 91.00,45.00 91.00,45.00
             91.00,45.00 90.00,44.00 90.00,44.00
             90.00,44.00 89.00,43.00 89.00,43.00
             89.00,43.00 88.00,42.00 88.00,42.00
             88.00,42.00 87.00,41.00 87.00,41.00
             87.00,41.00 86.00,40.00 86.00,40.00
             86.00,40.00 85.00,39.00 85.00,39.00
             85.00,39.00 84.00,38.00 84.00,38.00
             84.00,38.00 83.00,37.00 83.00,37.00
             83.00,37.00 82.00,36.00 82.00,36.00
             82.00,36.00 81.00,35.00 81.00,35.00
             81.00,35.00 80.00,34.00 80.00,34.00
             80.00,34.00 79.00,33.00 79.00,33.00
             79.00,33.00 78.00,32.00 78.00,32.00
             78.00,32.00 77.00,31.00 77.00,31.00
             77.00,31.00 76.00,30.00 76.00,30.00
             76.00,30.00 75.00,29.00 75.00,29.00
             75.00,29.00 74.00,28.00 74.00,28.00
             74.00,28.00 73.00,27.00 73.00,27.00
             73.00,27.00 72.00,26.00 72.00,26.00
             72.00,26.00 71.00,25.00 71.00,25.00
             71.00,25.00 70.00,24.00 70.00,24.00
             70.00,24.00 69.00,23.00 69.00,23.00
             69.00,23.00 68.00,22.00 68.00,22.00
             68.00,22.00 67.00,21.00 67.00,21.00
             67.00,21.00 66.00,20.00 66.00,20.00
             66.00,20.00 65.00,19.00 65.00,19.00
             65.00,19.00 64.00,18.00 64.00,18.00
             64.00,18.00 63.00,19.00 63.00,19.00 Z
           M 21.00,65.00
           C 21.00,65.00 21.00,67.00 21.00,67.00
             21.00,67.00 21.00,69.00 21.00,69.00
             21.00,69.00 21.00,71.00 21.00,71.00
             21.00,71.00 21.00,73.00 21.00,73.00
             21.00,73.00 21.00,75.00 21.00,75.00
             21.00,75.00 21.00,77.00 21.00,77.00
             21.00,77.00 21.00,79.00 21.00,79.00
             21.00,79.00 21.00,81.00 21.00,81.00
             21.00,81.00 21.00,83.00 21.00,83.00
             21.00,83.00 21.00,85.00 21.00,85.00
             21.00,85.00 21.00,87.00 21.00,87.00
             21.00,87.00 21.00,89.00 21.00,89.00
             21.00,89.00 21.00,91.00 21.00,91.00
             21.00,91.00 21.00,93.00 21.00,93.00
             21.00,93.00 21.00,95.00 21.00,95.00
             21.00,95.00 21.00,97.00 21.00,97.00
             21.00,97.00 21.00,99.00 21.00,99.00
             21.00,99.00 21.00,101.00 21.00,101.00
             21.00,101.00 21.00,103.00 21.00,103.00
             21.00,103.00 21.00,105.00 21.00,105.00
             21.00,105.00 21.00,107.00 21.00,107.00
             21.00,107.00 21.00,109.00 21.00,109.00
             21.00,109.00 21.00,111.00 21.00,111.00
             21.00,111.00 21.00,113.00 21.00,113.00
             21.00,113.00 21.00,115.00 21.00,115.00
             21.00,115.00 21.00,117.00 21.00,117.00
             21.00,117.00 21.00,119.00 21.00,119.00
             21.00,119.00 21.00,121.00 21.00,121.00
             21.00,121.00 22.00,122.00 22.00,122.00
             22.00,122.00 24.00,122.00 24.00,122.00
             24.00,122.00 26.00,122.00 26.00,122.00
             26.00,122.00 28.00,122.00 28.00,122.00
             28.00,122.00 30.00,122.00 30.00,122.00
             30.00,122.00 30.00,120.00 30.00,120.00
             30.00,120.00 30.00,118.00 30.00,118.00
             30.00,118.00 30.00,116.00 30.00,116.00
             30.00,116.00 30.00,114.00 30.00,114.00
             30.00,114.00 30.00,112.00 30.00,112.00
             30.00,112.00 30.00,110.00 30.00,110.00
             30.00,110.00 30.00,108.00 30.00,108.00
             30.00,108.00 30.00,106.00 30.00,106.00
             30.00,106.00 30.00,104.00 30.00,104.00
             30.00,104.00 30.00,102.00 30.00,102.00
             30.00,102.00 30.00,100.00 30.00,100.00
             30.00,100.00 30.00,98.00 30.00,98.00
             30.00,98.00 30.00,96.00 30.00,96.00
             30.00,96.00 30.00,94.00 30.00,94.00
             30.00,94.00 30.00,92.00 30.00,92.00
             30.00,92.00 30.00,90.00 30.00,90.00
             30.00,90.00 30.00,88.00 30.00,88.00
             30.00,88.00 30.00,86.00 30.00,86.00
             30.00,86.00 30.00,84.00 30.00,84.00
             30.00,84.00 30.00,82.00 30.00,82.00
             30.00,82.00 30.00,80.00 30.00,80.00
             30.00,80.00 30.00,78.00 30.00,78.00
             30.00,78.00 30.00,76.00 30.00,76.00
             30.00,76.00 30.00,74.00 30.00,74.00
             30.00,74.00 30.00,72.00 30.00,72.00
             30.00,72.00 32.00,72.00 32.00,72.00
             32.00,72.00 34.00,72.00 34.00,72.00
             34.00,72.00 36.00,72.00 36.00,72.00
             36.00,72.00 38.00,72.00 38.00,72.00
             38.00,72.00 40.00,72.00 40.00,72.00
             40.00,72.00 42.00,72.00 42.00,72.00
             42.00,72.00 44.00,72.00 44.00,72.00
             44.00,72.00 46.00,72.00 46.00,72.00
             46.00,72.00 48.00,72.00 48.00,72.00
             48.00,72.00 50.00,72.00 50.00,72.00
             50.00,72.00 52.00,72.00 52.00,72.00
             52.00,72.00 54.00,72.00 54.00,72.00
             54.00,72.00 56.00,72.00 56.00,72.00
             56.00,72.00 58.00,72.00 58.00,72.00
             58.00,72.00 59.00,73.00 59.00,73.00
             59.00,73.00 59.00,75.00 59.00,75.00
             59.00,75.00 59.00,77.00 59.00,77.00
             59.00,77.00 59.00,79.00 59.00,79.00
             59.00,79.00 59.00,81.00 59.00,81.00
             59.00,81.00 59.00,83.00 59.00,83.00
             59.00,83.00 59.00,85.00 59.00,85.00
             59.00,85.00 59.00,87.00 59.00,87.00
             59.00,87.00 59.00,89.00 59.00,89.00
             59.00,89.00 59.00,91.00 59.00,91.00
             59.00,91.00 59.00,93.00 59.00,93.00
             59.00,93.00 59.00,95.00 59.00,95.00
             59.00,95.00 59.00,97.00 59.00,97.00
             59.00,97.00 59.00,99.00 59.00,99.00
             59.00,99.00 59.00,101.00 59.00,101.00
             59.00,101.00 59.00,103.00 59.00,103.00
             59.00,103.00 59.00,105.00 59.00,105.00
             59.00,105.00 59.00,107.00 59.00,107.00
             59.00,107.00 59.00,109.00 59.00,109.00
             59.00,109.00 59.00,111.00 59.00,111.00
             59.00,111.00 59.00,113.00 59.00,113.00
             59.00,113.00 59.00,115.00 59.00,115.00
             59.00,115.00 59.00,117.00 59.00,117.00
             59.00,117.00 59.00,119.00 59.00,119.00
             59.00,119.00 59.00,121.00 59.00,121.00
             59.00,121.00 60.00,122.00 60.00,122.00
             60.00,122.00 62.00,122.00 62.00,122.00
             62.00,122.00 64.00,122.00 64.00,122.00
             64.00,122.00 66.00,122.00 66.00,122.00
             66.00,122.00 68.00,122.00 68.00,122.00
             68.00,122.00 70.00,122.00 70.00,122.00
             70.00,122.00 72.00,122.00 72.00,122.00
             72.00,122.00 74.00,122.00 74.00,122.00
             74.00,122.00 76.00,122.00 76.00,122.00
             76.00,122.00 78.00,122.00 78.00,122.00
             78.00,122.00 80.00,122.00 80.00,122.00
             80.00,122.00 82.00,122.00 82.00,122.00
             82.00,122.00 84.00,122.00 84.00,122.00
             84.00,122.00 86.00,122.00 86.00,122.00
             86.00,122.00 88.00,122.00 88.00,122.00
             88.00,122.00 90.00,122.00 90.00,122.00
             90.00,122.00 92.00,122.00 92.00,122.00
             92.00,122.00 94.00,122.00 94.00,122.00
             94.00,122.00 96.00,122.00 96.00,122.00
             96.00,122.00 98.00,122.00 98.00,122.00
             98.00,122.00 100.00,122.00 100.00,122.00
             100.00,122.00 102.00,122.00 102.00,122.00
             102.00,122.00 104.00,122.00 104.00,122.00
             104.00,122.00 106.00,122.00 106.00,122.00
             106.00,122.00 107.00,121.00 107.00,121.00
             107.00,121.00 107.00,119.00 107.00,119.00
             107.00,119.00 107.00,117.00 107.00,117.00
             107.00,117.00 107.00,115.00 107.00,115.00
             107.00,115.00 107.00,113.00 107.00,113.00
             107.00,113.00 107.00,111.00 107.00,111.00
             107.00,111.00 107.00,109.00 107.00,109.00
             107.00,109.00 107.00,107.00 107.00,107.00
             107.00,107.00 107.00,105.00 107.00,105.00
             107.00,105.00 107.00,103.00 107.00,103.00
             107.00,103.00 107.00,101.00 107.00,101.00
             107.00,101.00 107.00,99.00 107.00,99.00
             107.00,99.00 107.00,97.00 107.00,97.00
             107.00,97.00 107.00,95.00 107.00,95.00
             107.00,95.00 107.00,93.00 107.00,93.00
             107.00,93.00 107.00,91.00 107.00,91.00
             107.00,91.00 107.00,89.00 107.00,89.00
             107.00,89.00 107.00,87.00 107.00,87.00
             107.00,87.00 107.00,85.00 107.00,85.00
             107.00,85.00 107.00,83.00 107.00,83.00
             107.00,83.00 107.00,81.00 107.00,81.00
             107.00,81.00 107.00,79.00 107.00,79.00
             107.00,79.00 107.00,77.00 107.00,77.00
             107.00,77.00 107.00,75.00 107.00,75.00
             107.00,75.00 107.00,73.00 107.00,73.00
             107.00,73.00 107.00,71.00 107.00,71.00
             107.00,71.00 107.00,69.00 107.00,69.00
             107.00,69.00 107.00,67.00 107.00,67.00
             107.00,67.00 107.00,65.00 107.00,65.00
             107.00,65.00 106.00,64.00 106.00,64.00
             106.00,64.00 104.00,64.00 104.00,64.00
             104.00,64.00 102.00,64.00 102.00,64.00
             102.00,64.00 100.00,64.00 100.00,64.00
             100.00,64.00 98.00,64.00 98.00,64.00
             98.00,64.00 96.00,64.00 96.00,64.00
             96.00,64.00 94.00,64.00 94.00,64.00
             94.00,64.00 92.00,64.00 92.00,64.00
             92.00,64.00 90.00,64.00 90.00,64.00
             90.00,64.00 88.00,64.00 88.00,64.00
             88.00,64.00 86.00,64.00 86.00,64.00
             86.00,64.00 84.00,64.00 84.00,64.00
             84.00,64.00 82.00,64.00 82.00,64.00
             82.00,64.00 80.00,64.00 80.00,64.00
             80.00,64.00 78.00,64.00 78.00,64.00
             78.00,64.00 76.00,64.00 76.00,64.00
             76.00,64.00 74.00,64.00 74.00,64.00
             74.00,64.00 72.00,64.00 72.00,64.00
             72.00,64.00 70.00,64.00 70.00,64.00
             70.00,64.00 68.00,64.00 68.00,64.00
             68.00,64.00 66.00,64.00 66.00,64.00
             66.00,64.00 64.00,64.00 64.00,64.00
             64.00,64.00 62.00,64.00 62.00,64.00
             62.00,64.00 60.00,64.00 60.00,64.00
             60.00,64.00 58.00,64.00 58.00,64.00
             58.00,64.00 56.00,64.00 56.00,64.00
             56.00,64.00 54.00,64.00 54.00,64.00
             54.00,64.00 52.00,64.00 52.00,64.00
             52.00,64.00 50.00,64.00 50.00,64.00
             50.00,64.00 48.00,64.00 48.00,64.00
             48.00,64.00 46.00,64.00 46.00,64.00
             46.00,64.00 44.00,64.00 44.00,64.00
             44.00,64.00 42.00,64.00 42.00,64.00
             42.00,64.00 40.00,64.00 40.00,64.00
             40.00,64.00 38.00,64.00 38.00,64.00
             38.00,64.00 36.00,64.00 36.00,64.00
             36.00,64.00 34.00,64.00 34.00,64.00
             34.00,64.00 32.00,64.00 32.00,64.00
             32.00,64.00 30.00,64.00 30.00,64.00
             30.00,64.00 28.00,64.00 28.00,64.00
             28.00,64.00 26.00,64.00 26.00,64.00
             26.00,64.00 24.00,64.00 24.00,64.00
             24.00,64.00 22.00,64.00 22.00,64.00
             22.00,64.00 21.00,65.00 21.00,65.00 Z
           M 71.00,72.00
           C 71.00,72.00 73.00,72.00 73.00,72.00
             73.00,72.00 75.00,72.00 75.00,72.00
             75.00,72.00 77.00,72.00 77.00,72.00
             77.00,72.00 79.00,72.00 79.00,72.00
             79.00,72.00 81.00,72.00 81.00,72.00
             81.00,72.00 83.00,72.00 83.00,72.00
             83.00,72.00 85.00,72.00 85.00,72.00
             85.00,72.00 87.00,72.00 87.00,72.00
             87.00,72.00 89.00,72.00 89.00,72.00
             89.00,72.00 91.00,72.00 91.00,72.00
             91.00,72.00 93.00,72.00 93.00,72.00
             93.00,72.00 95.00,72.00 95.00,72.00
             95.00,72.00 97.00,72.00 97.00,72.00
             97.00,72.00 98.00,73.00 98.00,73.00
             98.00,73.00 98.00,75.00 98.00,75.00
             98.00,75.00 98.00,77.00 98.00,77.00
             98.00,77.00 98.00,79.00 98.00,79.00
             98.00,79.00 98.00,81.00 98.00,81.00
             98.00,81.00 98.00,83.00 98.00,83.00
             98.00,83.00 98.00,85.00 98.00,85.00
             98.00,85.00 98.00,87.00 98.00,87.00
             98.00,87.00 98.00,89.00 98.00,89.00
             98.00,89.00 98.00,91.00 98.00,91.00
             98.00,91.00 98.00,93.00 98.00,93.00
             98.00,93.00 98.00,95.00 98.00,95.00
             98.00,95.00 98.00,97.00 98.00,97.00
             98.00,97.00 98.00,99.00 98.00,99.00
             98.00,99.00 98.00,101.00 98.00,101.00
             98.00,101.00 96.00,101.00 96.00,101.00
             96.00,101.00 94.00,101.00 94.00,101.00
             94.00,101.00 92.00,101.00 92.00,101.00
             92.00,101.00 90.00,101.00 90.00,101.00
             90.00,101.00 88.00,101.00 88.00,101.00
             88.00,101.00 86.00,101.00 86.00,101.00
             86.00,101.00 84.00,101.00 84.00,101.00
             84.00,101.00 82.00,101.00 82.00,101.00
             82.00,101.00 80.00,101.00 80.00,101.00
             80.00,101.00 78.00,101.00 78.00,101.00
             78.00,101.00 76.00,101.00 76.00,101.00
             76.00,101.00 74.00,101.00 74.00,101.00
             74.00,101.00 72.00,101.00 72.00,101.00
             72.00,101.00 70.00,101.00 70.00,101.00
             70.00,101.00 69.00,100.00 69.00,100.00
             69.00,100.00 69.00,98.00 69.00,98.00
             69.00,98.00 69.00,96.00 69.00,96.00
             69.00,96.00 69.00,94.00 69.00,94.00
             69.00,94.00 69.00,92.00 69.00,92.00
             69.00,92.00 69.00,90.00 69.00,90.00
             69.00,90.00 69.00,88.00 69.00,88.00
             69.00,88.00 69.00,86.00 69.00,86.00
             69.00,86.00 69.00,84.00 69.00,84.00
             69.00,84.00 69.00,82.00 69.00,82.00
             69.00,82.00 69.00,80.00 69.00,80.00
             69.00,80.00 69.00,78.00 69.00,78.00
             69.00,78.00 69.00,76.00 69.00,76.00
             69.00,76.00 69.00,74.00 69.00,74.00
             69.00,74.00 69.00,72.00 69.00,72.00
             69.00,72.00 71.00,72.00 71.00,72.00 Z
           M 34.00,77.00
           C 34.00,77.00 34.00,79.00 34.00,79.00
             34.00,79.00 34.00,81.00 34.00,81.00
             34.00,81.00 34.00,83.00 34.00,83.00
             34.00,83.00 34.00,85.00 34.00,85.00
             34.00,85.00 34.00,87.00 34.00,87.00
             34.00,87.00 34.00,89.00 34.00,89.00
             34.00,89.00 34.00,91.00 34.00,91.00
             34.00,91.00 34.00,93.00 34.00,93.00
             34.00,93.00 34.00,95.00 34.00,95.00
             34.00,95.00 34.00,97.00 34.00,97.00
             34.00,97.00 34.00,99.00 34.00,99.00
             34.00,99.00 34.00,101.00 34.00,101.00
             34.00,101.00 34.00,103.00 34.00,103.00
             34.00,103.00 34.00,105.00 34.00,105.00
             34.00,105.00 34.00,107.00 34.00,107.00
             34.00,107.00 34.00,109.00 34.00,109.00
             34.00,109.00 34.00,111.00 34.00,111.00
             34.00,111.00 34.00,113.00 34.00,113.00
             34.00,113.00 34.00,115.00 34.00,115.00
             34.00,115.00 34.00,117.00 34.00,117.00
             34.00,117.00 34.00,119.00 34.00,119.00
             34.00,119.00 34.00,121.00 34.00,121.00
             34.00,121.00 35.00,122.00 35.00,122.00
             35.00,122.00 37.00,122.00 37.00,122.00
             37.00,122.00 39.00,122.00 39.00,122.00
             39.00,122.00 41.00,122.00 41.00,122.00
             41.00,122.00 43.00,122.00 43.00,122.00
             43.00,122.00 45.00,122.00 45.00,122.00
             45.00,122.00 47.00,122.00 47.00,122.00
             47.00,122.00 49.00,122.00 49.00,122.00
             49.00,122.00 51.00,122.00 51.00,122.00
             51.00,122.00 53.00,122.00 53.00,122.00
             53.00,122.00 55.00,122.00 55.00,122.00
             55.00,122.00 55.00,120.00 55.00,120.00
             55.00,120.00 55.00,118.00 55.00,118.00
             55.00,118.00 55.00,116.00 55.00,116.00
             55.00,116.00 55.00,114.00 55.00,114.00
             55.00,114.00 55.00,112.00 55.00,112.00
             55.00,112.00 55.00,110.00 55.00,110.00
             55.00,110.00 55.00,108.00 55.00,108.00
             55.00,108.00 55.00,106.00 55.00,106.00
             55.00,106.00 55.00,104.00 55.00,104.00
             55.00,104.00 55.00,102.00 55.00,102.00
             55.00,102.00 55.00,100.00 55.00,100.00
             55.00,100.00 55.00,98.00 55.00,98.00
             55.00,98.00 55.00,96.00 55.00,96.00
             55.00,96.00 55.00,94.00 55.00,94.00
             55.00,94.00 55.00,92.00 55.00,92.00
             55.00,92.00 55.00,90.00 55.00,90.00
             55.00,90.00 55.00,88.00 55.00,88.00
             55.00,88.00 55.00,86.00 55.00,86.00
             55.00,86.00 55.00,84.00 55.00,84.00
             55.00,84.00 55.00,82.00 55.00,82.00
             55.00,82.00 55.00,80.00 55.00,80.00
             55.00,80.00 55.00,78.00 55.00,78.00
             55.00,78.00 55.00,76.00 55.00,76.00
             55.00,76.00 53.00,76.00 53.00,76.00
             53.00,76.00 51.00,76.00 51.00,76.00
             51.00,76.00 49.00,76.00 49.00,76.00
             49.00,76.00 47.00,76.00 47.00,76.00
             47.00,76.00 45.00,76.00 45.00,76.00
             45.00,76.00 43.00,76.00 43.00,76.00
             43.00,76.00 41.00,76.00 41.00,76.00
             41.00,76.00 39.00,76.00 39.00,76.00
             39.00,76.00 37.00,76.00 37.00,76.00
             37.00,76.00 35.00,76.00 35.00,76.00
             35.00,76.00 34.00,77.00 34.00,77.00 Z
           M 73.00,77.00
           C 73.00,77.00 73.00,79.00 73.00,79.00
             73.00,79.00 73.00,81.00 73.00,81.00
             73.00,81.00 73.00,83.00 73.00,83.00
             73.00,83.00 73.00,85.00 73.00,85.00
             73.00,85.00 73.00,87.00 73.00,87.00
             73.00,87.00 73.00,89.00 73.00,89.00
             73.00,89.00 73.00,91.00 73.00,91.00
             73.00,91.00 73.00,93.00 73.00,93.00
             73.00,93.00 73.00,95.00 73.00,95.00
             73.00,95.00 73.00,97.00 73.00,97.00
             73.00,97.00 75.00,97.00 75.00,97.00
             75.00,97.00 77.00,97.00 77.00,97.00
             77.00,97.00 79.00,97.00 79.00,97.00
             79.00,97.00 81.00,97.00 81.00,97.00
             81.00,97.00 83.00,97.00 83.00,97.00
             83.00,97.00 85.00,97.00 85.00,97.00
             85.00,97.00 87.00,97.00 87.00,97.00
             87.00,97.00 89.00,97.00 89.00,97.00
             89.00,97.00 91.00,97.00 91.00,97.00
             91.00,97.00 93.00,97.00 93.00,97.00
             93.00,97.00 94.00,96.00 94.00,96.00
             94.00,96.00 94.00,94.00 94.00,94.00
             94.00,94.00 94.00,92.00 94.00,92.00
             94.00,92.00 94.00,90.00 94.00,90.00
             94.00,90.00 94.00,88.00 94.00,88.00
             94.00,88.00 94.00,86.00 94.00,86.00
             94.00,86.00 94.00,84.00 94.00,84.00
             94.00,84.00 94.00,82.00 94.00,82.00
             94.00,82.00 94.00,80.00 94.00,80.00
             94.00,80.00 94.00,78.00 94.00,78.00
             94.00,78.00 94.00,76.00 94.00,76.00
             94.00,76.00 92.00,76.00 92.00,76.00
             92.00,76.00 90.00,76.00 90.00,76.00
             90.00,76.00 88.00,76.00 88.00,76.00
             88.00,76.00 86.00,76.00 86.00,76.00
             86.00,76.00 84.00,76.00 84.00,76.00
             84.00,76.00 82.00,76.00 82.00,76.00
             82.00,76.00 80.00,76.00 80.00,76.00
             80.00,76.00 78.00,76.00 78.00,76.00
             78.00,76.00 76.00,76.00 76.00,76.00
             76.00,76.00 74.00,76.00 74.00,76.00
             74.00,76.00 73.00,77.00 73.00,77.00 Z" />
</svg>
