<?xml version="1.0" encoding="UTF-8" standalone="no"?>
<svg
   xmlns:dc="http://purl.org/dc/elements/1.1/"
   xmlns:cc="http://creativecommons.org/ns#"
   xmlns:rdf="http://www.w3.org/1999/02/22-rdf-syntax-ns#"
   xmlns:svg="http://www.w3.org/2000/svg"
   xmlns="http://www.w3.org/2000/svg"
   xmlns:sodipodi="http://sodipodi.sourceforge.net/DTD/sodipodi-0.dtd"
   xmlns:inkscape="http://www.inkscape.org/namespaces/inkscape"
   width="20"
   height="20"
   viewBox="0 0 20 20"
   version="1.1"
   id="svg3777"
   sodipodi:docname="small-house-icon-1.svg"
   inkscape:version="0.92.4 (unknown)">
  <metadata
     id="metadata3783">
    <rdf:RDF>
      <cc:Work
         rdf:about="">
        <dc:format>image/svg+xml</dc:format>
        <dc:type
           rdf:resource="http://purl.org/dc/dcmitype/StillImage" />
        <dc:title></dc:title>
      </cc:Work>
    </rdf:RDF>
  </metadata>
  <defs
     id="defs3781" />
  <sodipodi:namedview
     pagecolor="#ffffff"
     bordercolor="#666666"
     borderopacity="1"
     objecttolerance="10"
     gridtolerance="10"
     guidetolerance="10"
     inkscape:pageopacity="0"
     inkscape:pageshadow="2"
     inkscape:window-width="1221"
     inkscape:window-height="969"
     id="namedview3779"
     showgrid="false"
     inkscape:zoom="5.7714934"
     inkscape:cx="76.585873"
     inkscape:cy="48.029426"
     inkscape:window-x="1499"
     inkscape:window-y="27"
     inkscape:window-maximized="1"
     inkscape:current-layer="svg3777"
     units="px" />
  <path
     style="fill:#000000;stroke-width:0.16243656"
     d=""
     id="path3789"
     inkscape:connector-curvature="0" />
  <path
     style="fill:#000000;stroke-width:0.14814815"
     d="M 2.6692092,15.461535 V 10.765807 L 2.1806749,11.239313 1.6921405,11.712819 H 1.4700004 1.2478604 L 0.69927556,11.151017 0.15069073,10.589216 V 10.298324 10.007432 L 5.0033718,5.1564222 9.8560529,0.30541179 h 0.2976041 0.297605 l 1.923788,1.92938031 1.923789,1.9293807 0.07407,-1.0775284 0.07407,-1.0775286 h 1.555555 1.555556 l 0.04019,2.7471515 0.04019,2.7471514 1.256103,1.2495777 1.256103,1.2495776 v 0.306538 0.306538 l -0.561787,0.548585 -0.561802,0.548584 H 18.818163 18.60924 l -0.488534,-0.473506 -0.488534,-0.473506 v 4.695728 4.69573 H 10.150691 2.6692092 Z m 5.9259259,0.399433 V 12.305412 H 7.0395795 5.484024 v 3.45679 3.456791 l 0.098765,0.09876 0.098765,0.09877 H 7.138345 8.5951351 Z M 4.5951352,15.338779 v -3.929596 l 2.4074073,0.04071 2.4074073,0.04071 0.039497,3.888889 0.039496,3.88889 h 3.6271702 3.62717 V 14.823931 10.379486 H 10.150691 3.5580981 v 4.444445 4.444445 h 0.5185185 0.5185186 z m 6.3246058,0.871486 -0.102384,-0.102383 v -2.34568 -2.345679 h 2.278157 2.278156 l 0.170345,0.205254 0.170347,0.205254 -0.0411,2.202154 -0.04109,2.202152 -2.305024,0.04066 -2.305023,0.04066 z m 3.749468,-2.354662 v -1.56092 l -1.444444,0.0424 -1.444445,0.0424 -0.04222,1.518518 -0.04222,1.518519 h 1.486664 1.486664 z M 13.261802,6.3794863 10.153337,3.2683752 h -0.0026 -0.0026 L 7.0396705,6.3794863 3.9312053,9.4905973 h 6.2195767 6.219575 z m 3.481481,-0.888889 V 2.8239307 h -0.732274 -0.732273 l -0.04551,1.8888889 -0.0455,1.8888888 0.73568,0.7777778 0.735679,0.7777777 h 0.0421 0.0421 z"
     id="path4025"
     inkscape:connector-curvature="0" />
</svg>
